Patient4_TMGait_0pt5_02_left_13_EMG.mot
version=1
nRows=37
nColumns=33
inDegrees=no
endheader
time	1LAddLong	2LGlutMax	3LGlutMed	4LIliopsoas	5LSemiMemb	6LBicFemLong	7LRecFem	8LVastMed	9LVastLat	10LGasMed	11LTibAnt	12lTibPost	13LPeroneusLong	14LSol	15LExtDigLong	16LFlexDigLong	17RAddLong	18RGlutMax	19RGlutMed	20RIliopsoas	21RSemiMemb	22RBicFemLong	23RRecFem	24RVastMed	25RVastLat	26RGasMed	27RTibAnt	28RTibPost	29RPeroneusLong	30RSol	31RExtDigLong	32RFlexDigLong
16.785	0.011292	0.6337	-0.11917	0.004883	-0.06485	0.215	0.30746	0.020142	0.027161	-0.025482	0.028839	-0.001068	-0.005493	-0.080261	0.007935	-0.1152	-0.15076	-0.27206	-0.23239	-0.1712	0.016174	-0.00061	0.29999	0.10086	0.031433	0.001068	0.029907	-0.010223	-0.080719	0.12268	-0.001068	-0.018616
16.786	0.006866	0.6958	0.1564	0.032501	-0.089722	-0.14664	0.34653	-0.00061	0.095978	-0.018005	0.036316	-0.001221	0.030212	-0.22034	-0.00473	0.022278	-0.11826	-0.28442	-0.1535	-0.11185	-0.024872	-0.053406	0.31876	0.006256	0.014496	0.002899	0.041809	-0.00824	-0.16388	0.15991	-0.005341	-0.018463
16.787	0.020905	0.75089	0.06958	0.012054	-0.12589	-0.12436	0.38391	0.001373	0.080872	-0.002899	0.024414	0.002289	0.015869	-0.14282	-0.048218	0.15717	-0.13733	-0.32303	-0.10559	-0.033112	-0.076752	-0.068054	0.3064	-0.053558	-0.009003	-0.002136	-0.031738	-0.009613	-0.16281	0.081787	-0.001984	-0.019684
16.788	0.028992	0.81314	0.13184	0.013885	-0.088806	-0.11063	0.35919	0.02182	0.058136	0.014496	0.021057	0.007477	0.0737	-0.14435	-0.07843	0.19577	-0.068359	-0.36896	-0.04715	0.009918	-0.1178	-0.044403	0.34012	-0.13351	-0.027466	0.007629	0.20035	-0.011444	-0.034943	-0.031738	-0.000916	-0.008392
16.789	0.023041	0.87921	0.14694	0.019989	0.019836	-0.16266	0.31601	0.029144	-0.02243	0.00885	0.015106	0.005188	0.096436	-0.17822	-0.065308	0.07309	0.016327	-0.44083	-0.084686	-0.00885	-0.074158	0.03479	0.34119	-0.11353	-0.016479	0.017853	0.9346	-0.009918	0.1329	-0.19638	-0.003662	0.001373
16.79	0.011139	0.86838	0.2475	0.010529	0.074005	-0.068359	0.29388	0.028076	-0.021667	-0.013885	0.028839	0.002441	0.084229	-0.11963	-0.032501	0.028076	0.11948	-0.4985	-0.079193	0.012817	-0.032501	0.03479	0.29816	0.055695	-0.020294	0.014191	1.5079	-0.008392	0.077057	-0.27557	-0.000458	0.00351
16.791	0.009613	0.96985	0.26474	-0.004272	0.022736	-0.22553	0.14786	0.018005	0.070343	-0.014343	0.028229	0.006256	0.054016	-0.041046	-0.020752	0.068817	0.19562	-0.49957	-0.16068	0.029602	0.026245	0.066681	0.32303	0.066071	-0.010986	0.027618	-0.13092	-0.009766	0.095673	-0.34149	-0.000458	-0.000763
16.792	-0.002441	1.0452	0.25223	0.001526	0.001831	-0.32196	0.02182	0.014343	0.11414	0.00473	0.052185	0.007019	0.000763	0.052185	0.010834	0.046692	0.20004	-0.51117	-0.26047	-0.015106	0.037994	0.046692	0.30228	0.085449	0.007172	0.032043	-1.1644	-0.00946	0.20813	-0.31998	-0.003204	0.005646
16.793	0.007324	1.0536	0.12116	-0.002594	-0.010529	-0.19913	-0.074768	0.02182	0.10696	-0.021515	0.067444	0.007477	-0.004883	0.015869	0.024109	-0.43762	0.14572	-0.5426	-0.1506	-0.10513	0.034637	0.021362	0.36514	0.15366	-0.007324	0.02243	-0.4216	-0.011902	0.10117	-0.17395	-0.00061	0.001221
16.794	0.026398	1.1308	0.13046	0.008698	0.067749	-0.081635	-0.16373	0.009308	0.14816	-0.08316	0.069885	0.009766	-0.016937	0.033417	0.020142	-0.15457	0.066681	-0.54794	-0.14984	-0.090179	0.047913	-0.081329	0.32288	0.20096	-0.004578	0.006866	0.049744	-0.013275	-0.059357	-0.003967	-0.008392	-0.000305
16.795	0.045013	1.2114	0.1004	-0.014343	0.15564	-0.022125	-0.23209	0.00885	0.19257	-0.096588	0.047607	0.017242	-0.001221	0.046082	-0.000763	0.35782	0.028076	-0.53879	-0.26032	-0.10544	0.07019	-0.11475	0.39764	0.1471	-0.003052	0.003967	-0.24384	-0.013733	0.091858	0.15503	-0.005341	-0.001526
16.796	0.039673	1.178	0.029755	0.010986	0.095673	0.025024	-0.26871	0.010223	0.14145	-0.041351	0.021057	0.016022	0.010071	0.020905	-0.006714	0.2388	-0.075226	-0.63522	-0.28671	-0.067139	0.022736	-0.061951	0.40237	0.15121	-0.015411	0.004883	-0.2475	-0.013885	0.23911	0.18143	-0.004425	-0.011597
16.797	0.046692	1.2222	-0.024414	0.042419	0.04425	0.040131	-0.079041	-0.006561	-0.002747	-0.048065	0.050812	0.023804	-0.036011	0.01236	0.014191	0.13153	-0.13229	-0.60272	-0.24933	-0.032196	-0.001221	0.02594	0.3833	0.1152	-0.015106	0.003662	-0.64056	-0.01236	0.19211	0.1506	-0.003052	-0.010223
16.798	0.048523	1.2566	-0.062866	0.031738	0.019989	0.046082	-0.096893	-0.015564	-0.26428	-0.075226	0.045624	0.016785	-0.093842	0.01297	-0.017242	0.047302	-0.13947	-0.63782	-0.17456	-0.005951	-0.00061	0.082703	0.43503	0.12528	-0.023346	0.006409	-0.7164	-0.011139	0.15839	0.14023	-0.002747	-0.01236
16.799	0.052338	1.2479	-0.11581	0.009766	-0.029602	-0.00412	-0.18112	0.002747	-0.3714	-0.067749	0.032043	0.026855	-0.081482	0.011749	-0.022278	0.007935	-0.097351	-0.66925	-0.15015	-0.015869	-0.009003	0.025177	0.46631	0.085144	-0.035553	0.010529	-0.099335	-0.009155	0.18234	0.16602	-0.00061	-0.020752
16.8	0.037537	1.1377	-0.20371	0.007477	-0.055542	0.00885	-0.24307	0.010223	-0.27344	-0.064392	0.030823	0.010071	-0.063171	-0.004272	-0.024414	0.015259	-0.036316	-0.73608	-0.16998	0.033112	-0.021362	-0.038147	0.42282	0.06546	-0.037689	0.012207	-0.17853	-0.009766	0.17716	0.09552	-0.001984	-0.009766
16.801	0.028381	1.0487	-0.22201	-0.001831	-0.091248	0.076904	-0.22751	0.023193	-0.19806	-0.031281	0.034332	0.022888	-0.044708	0.028992	-0.028229	-0.033569	0.036316	-0.79453	-0.14435	0.046844	-0.005188	-0.10498	0.46524	0.11704	-0.033264	0.012817	-0.64911	-0.007782	0.075226	0.000153	-0.001373	-0.005341
16.802	0.017395	1.0156	-0.31311	0.002899	-0.081024	0.14999	-0.23956	0.011749	-0.053864	0.020905	0.032959	0.023956	-0.067444	0.009918	-0.02243	-1.2103	0.10178	-0.82443	-0.1767	0.068512	0.014954	-0.17761	0.51468	0.00824	-0.021057	0.006561	-0.17273	-0.005035	-0.079346	0.001678	0.003967	-0.010681
16.803	0.023346	1.0867	-0.26245	0.006866	-0.005951	0.1503	-0.35019	0.00351	0.19745	0.058136	0.020905	0.020599	-0.0383	0.016022	-0.02655	0.1857	0.10941	-0.82047	-0.1416	0.060577	-0.01236	-0.19058	0.51666	-0.042725	-0.029449	0.007629	0.39078	-0.010529	-0.2359	0.014038	-0.00061	-0.003662
16.804	0.024261	1.0344	-0.2536	0.015106	0.023956	-0.023499	-0.36026	0.001068	0.24323	0.045929	0.032654	0.019836	-0.001221	0.001068	-0.025635	0.74753	0.1239	-0.84549	-0.14771	0.094604	-0.050659	-0.12894	0.47379	-0.041046	-0.042267	0.004883	0.42114	-0.001984	-0.20264	-0.020142	-0.002289	-0.011902
16.805	0.023193	0.90424	-0.23224	0.007324	0.02594	-0.017242	-0.27359	-0.011292	0.061188	0.014191	0.033875	0.014496	0.012207	0.005493	-0.011292	-0.41382	0.10529	-0.84015	-0.19165	0.13458	-0.10391	0.012512	0.49484	-0.076294	-0.038605	0.006561	-0.11978	0.000153	-0.14328	-0.007935	-0.003052	-0.008392
16.806	0.039215	0.86121	-0.19714	-0.002594	0.027924	0.007477	-0.22018	-0.023193	-0.19455	0.012817	0.04425	0.011292	0.006561	0.08728	0.00061	-0.086975	0.066986	-0.82977	-0.20065	0.12085	-0.11124	0.046387	0.42908	-0.029602	-0.019226	0.004272	-0.29831	-0.005188	-0.042114	0.00824	-0.001221	-0.001678
16.807	0.037842	0.78476	-0.25559	-0.001526	0.045929	0.004883	-0.21881	-0.015106	-0.21469	0.013275	0.053558	0.015564	-0.013123	0.24155	0.001831	0.72967	0.04303	-0.83817	-0.27435	0.11444	-0.13596	0.021362	0.40344	-0.033722	-0.005798	0.012054	-0.3743	-0.006256	-0.055084	-0.000458	-0.00351	-0.001831
16.808	0.031281	0.70557	-0.2417	-0.007172	0.036469	-0.009003	-0.20981	-0.008698	-0.1355	0.011597	0.041351	0.027924	-0.012665	0.21942	0.001831	-0.25314	0.022736	-0.87555	-0.31784	0.031738	-0.17151	0.045319	0.39597	-0.040741	-0.024872	0.00473	-0.66361	-0.007629	-0.086212	0.049591	-0.006561	-0.000305
16.809	0.017395	0.62576	-0.15854	0.00412	0.007935	0.063782	-0.16007	-0.009155	-0.11368	0.000305	0.033112	0.033569	0.043182	0.16098	0.005951	-0.66574	0.045929	-0.9053	-0.23239	-0.049744	-0.19089	0.024719	0.43625	-0.10086	-0.024261	0.006561	-0.26016	-0.00946	-0.12192	0.10284	-0.007935	-0.000763
16.81	0.01297	0.58792	0.12833	0.000763	-0.014648	0.215	-0.15045	0.007324	-0.12634	0.071716	0.032196	0.040131	0.034637	0.077972	-0.011902	0.63599	0.005646	-0.97336	-0.18204	-0.01297	-0.19745	-0.009003	0.43411	-0.11551	-0.031128	0.014343	0.58884	-0.003204	-0.03479	0.060577	0.002747	-0.001068
16.811	-0.000153	0.46463	0.099792	0.007477	-0.031433	0.17853	-0.13382	0.014648	-0.13275	0.11032	0.027618	0.032959	0.055695	0.11871	-0.068817	0.14511	-0.006714	-1.0646	-0.20615	0.068054	-0.15595	0.020142	0.41016	-0.14938	-0.020905	0.020599	0.96832	-0.004883	0.062561	0.03952	-0.004272	-0.005341
16.812	0.000305	0.38376	0.11856	0.016632	-0.020142	0.097809	-0.15976	-0.001831	-0.096893	0.12589	0.021973	0.018921	0.054779	0.27542	-0.088196	0.5751	0.03479	-1.0178	-0.17975	0.12772	-0.16388	0.083466	0.38666	-0.094299	-0.013428	0.011902	0.66116	-0.001373	0.063477	0.017853	-0.001678	-0.005188
16.813	0.010223	0.35873	0.15427	-0.001984	-0.066376	0.20599	-0.16937	-0.005646	-0.055847	0.086212	0.029907	0.016632	0.05661	0.42175	-0.019684	-0.076904	0.023499	-1.02	-0.19486	0.12451	-0.15717	0.14282	0.41397	-0.09903	-0.031433	0.005493	0.13382	-0.006256	0.018005	0.030518	-0.005035	-0.010071
16.814	0.009766	0.29953	0.13123	0.000305	-0.00351	0.24674	-0.16083	-0.016327	-0.03952	0.093231	0.031433	0.013123	0.036926	0.43549	-0.005341	0.46005	-0.005798	-0.94864	-0.17288	0.093231	-0.11032	0.10742	0.40741	-0.076141	-0.014343	0.000458	0.4306	0.001984	-0.10025	-0.065155	-0.003204	-0.013428
16.815	0.020905	0.19974	0.23697	0.015411	0.095673	0.21759	-0.23789	-0.01236	0.032654	0.12192	0.026855	0.010376	0.015564	0.16007	-0.023346	-0.79605	0.010986	-0.99945	-0.20126	-0.010071	-0.1059	0.049286	0.40085	-0.056305	-0.006104	0.003357	0.7692	-0.003967	-0.17075	-0.12741	-0.004578	-0.012512
16.816	0.03006	0.027008	0.16007	0.006409	0.032043	0.15167	-0.22736	-0.009308	0.12039	0.081329	0.026855	0.01358	0.035095	-0.43442	-0.016327	0.24506	0.037079	-0.93155	-0.1503	-0.056305	-0.11795	-0.010681	0.39215	-0.047607	-0.020142	0.003815	0.43671	-0.008698	-0.090485	-0.043335	-0.006714	-0.006714
16.817	0.007477	-0.10529	0.14145	-0.018921	-0.014648	0.083923	-0.1593	-0.001221	0.13641	0.005493	0.023041	0.006104	0.056763	-0.63355	-0.006561	0.16174	0.067291	-0.82184	-0.11032	-0.085297	-0.14023	0.016632	0.36621	-0.010986	-0.017242	0.003662	0.033264	-0.005646	-0.11337	0.019073	-0.003662	-0.012512
16.818	0.010681	-0.19043	0.14496	0.002594	-0.009155	-0.006409	-0.059662	-0.006256	0.091858	0.025482	0.033875	-0.003662	0.02182	-0.63034	-0.007019	0.004425	0.056763	-0.70847	-0.089569	-0.090179	-0.17425	0.069885	0.30945	0.030518	-0.021973	-0.00061	-0.12451	-0.001068	-0.23514	-0.020447	-0.00351	-0.00946
16.819	0.020599	-0.26825	0.055542	0.023804	0.007019	-0.13031	-0.10529	-0.013428	0.015564	-0.014343	0.0383	0.006561	-0.014954	-0.46555	0.006409	-0.14008	0.040588	-0.63278	-0.17838	-0.053558	-0.17212	0.11719	0.29526	0.057678	-0.008545	-0.006104	-0.10895	-0.003662	-0.24612	-0.062103	-0.00061	-0.013885
16.82	0.013275	-0.38818	-0.12085	0.018463	-0.027466	-0.1442	-0.087128	-0.006104	-0.012054	-0.018311	0.011139	0.021515	-0.019836	-0.35873	0.002136	0.003967	0.059357	-0.63965	-0.26611	0	-0.14557	0.1619	0.27908	0.052032	-0.013885	-0.008392	0.17258	0.000305	-0.19043	-0.067902	-0.001984	-0.011749
16.821	-0.005188	-0.37369	-0.20477	-0.003967	-0.070953	0.038605	-0.044403	-0.006866	0.030975	0.040588	0.026703	0.036316	-0.023346	-0.25955	0.01297	-0.24689	0.098877	-0.51331	-0.43304	0.030518	-0.11459	0.17624	0.31372	-0.003815	-0.006409	-0.004883	0.45349	-0.000458	-0.076752	-0.20386	-0.002441	-0.00885
